<?xml version="1.0" encoding="UTF-8"?>
<svg id="Layer_1" data-name="Layer 1" xmlns="http://www.w3.org/2000/svg" viewBox="0 0 741.03 889.09">
  <defs>
    <style>
      .cls-1 {
        fill: #072a41;
      }

      .cls-2 {
        fill: #0b0e0f;
      }

      .cls-3 {
        fill: #fefefd;
      }
    </style>
  </defs>
  <g>
    <path class="cls-2" d="M34.16,417.9c4.34.64,7,4.06,11.38,5.62,23.48,8.37,50.53-3.94,61.78-25.57,5.4-10.38,3.02-17.54,7.26-27.08h560.04c18.81,1.51,31.54,17.03,34.75,34.87l.07,322.3c-.43,21.52-18.31,39.82-39.68,41.28l-599.17-.05c-13.12.52-36.43-21.26-36.43-33.2v-318.17ZM96.5,429.23l-2.43,2.43v272.03c0,.28,2.5,2.86,3.26,3.21h547.24c.77-.36,3.26-2.93,3.26-3.21v-272.03l-2.43-2.43H96.5Z"/>
    <path class="cls-2" d="M479.6,845.2c25.35,2.01,53.41-2.11,78.44.1,23.43,2.06,28.17,22.11,24.33,42.27l-3.34,1.52-417.91-1.47c-7.57-19.22.25-40.34,22.76-42.32,11.45-1.01,74.92,2,78.69-.65l12.18-49.57,192.35.3,2.33,2.53,10.18,47.29Z"/>
    <path class="cls-3" d="M96.5,429.23h548.91l2.43,2.43v272.03c0,.28-2.5,2.86-3.26,3.21H97.34c-.77-.36-3.26-2.93-3.26-3.21v-272.03l2.43-2.43Z"/>
  </g>
  <g>
    <path class="cls-1" d="M74.64,279.45c.27.82,4.73,3.13,6.23,5.1,6.7,8.82,7.7,20.12.28,28.93-1.97,2.34-6.48,2.67-6.27,6.11l20.49,59.06c-1.68,23.39-28.66,39.16-50.13,27.35-6.69-3.68-19.95-17.77-18.89-25.72l20.06-62.77c-11.09-5.12-14-21.74-7.16-31.35,2.25-3.16,6.13-4.41,7.05-5.91,4.12-6.74-1.47-55.43.88-66.92C38.14,206.63,1.72,194.83.11,183.83c-.92-6.29,4.01-10.59,8.11-14.52C114.99,117.43,222.5,66.16,329.3,15.89c17.64-8.3,37.42-22.08,57.33-12.79,104.84,51.87,212.09,99.1,316.85,151.1,14.15,7.02,56.21,22.26,28.07,40.57l-146.04,70.37c-65.93-49.27-150.47-62.9-231.62-61.04-50.94,3.36-102.58,10.5-149.19,32.16-17.32,8.05-32.8,19.3-49.89,27.75l-80.17-37.18v52.62Z"/>
    <path class="cls-1" d="M178.27,346.65l1.96-62.83c4.31-3.83,11.54-5.3,15.77-7.77,29.01-16.9,47.28-26.32,82.59-33.93,86.77-18.7,186.63-12.41,266.74,31.35,6.34,3.47,12.31,8.41,18.32,12.44v60.72H178.27Z"/>
  </g>
</svg>